<mxfile host="app.diagrams.net" modified="2023-12-19T22:31:17.041Z" agent="Mozilla/5.0 (Windows NT 10.0; Win64; x64; rv:120.0) Gecko/20100101 Firefox/120.0" version="22.1.11" etag="Dx44SSpaPfLPeAwmrehg" type="github">
  <diagram name="Page-1" id="XYxnz_z44fHKCmHniPhc">
    <mxGraphModel>
      <root>
        <mxCell id="0" />
        <mxCell id="1" parent="0" />
      </root>
    </mxGraphModel>
  </diagram>
</mxfile>
